<?xml version="1.0" encoding="iso-8859-1"?>
<!-- Generator: Adobe Illustrator 21.0.0, SVG Export Plug-In . SVG Version: 6.00 Build 0)  -->
<svg version="1.1" id="Capa_1" xmlns="http://www.w3.org/2000/svg" xmlns:xlink="http://www.w3.org/1999/xlink" x="0px" y="0px"
	 viewBox="0 0 512 512" style="enable-background:new 0 0 512 512;" xml:space="preserve">
<path style="fill:#FFDA45;" d="M202.031,402.803v55.229c0,29.806,24.162,53.968,53.968,53.968l0,0
	c29.806,0,53.968-24.162,53.968-53.968v-55.229H202.031z"/>
<path style="fill:#FFB13B;" d="M255.999,402.803V512c29.806,0,53.968-24.162,53.968-53.968v-55.229H255.999z"/>
<path style="fill:#FFE733;" d="M481.257,362.293L481.257,362.293c-40.402-29.716-64.259-76.878-64.259-127.031v-74.263
	C416.998,72.082,344.916,0,255.999,0l0,0C167.082,0,95,72.082,95,160.999v74.263c0,50.153-23.857,97.315-64.259,127.031l0,0l0,0
	v81.021h450.515L481.257,362.293L481.257,362.293z"/>
<path style="fill:#FFDA45;" d="M481.257,362.292c-40.402-29.716-64.259-76.878-64.259-127.031v-74.263
	C416.998,72.082,344.916,0,255.999,0v443.313h225.258V362.292L481.257,362.292z"/>
<rect x="30.741" y="362.29" style="fill:#FFB13B;" width="450.51" height="81.02"/>
<rect x="255.999" y="362.29" style="fill:#FF9500;" width="225.26" height="81.02"/>
<circle style="fill:#F92814;" cx="385.569" cy="83.27" r="83.27"/>
<g>
</g>
<g>
</g>
<g>
</g>
<g>
</g>
<g>
</g>
<g>
</g>
<g>
</g>
<g>
</g>
<g>
</g>
<g>
</g>
<g>
</g>
<g>
</g>
<g>
</g>
<g>
</g>
<g>
</g>
</svg>
