<?xml version="1.0" encoding="utf-8"?>
<!-- Generator: Adobe Illustrator 23.0.5, SVG Export Plug-In . SVG Version: 6.00 Build 0)  -->
<svg version="1.1" id="Слой_1" xmlns="http://www.w3.org/2000/svg" xmlns:xlink="http://www.w3.org/1999/xlink" x="0px" y="0px"
	 viewBox="0 0 512 512" style="enable-background:new 0 0 512 512;" xml:space="preserve">
<style type="text/css">
	.st0{fill:#333333;}
	.st1{fill:none;}
	.st2{fill:#FFFFFF;}
	.st3{font-family:'Georgia';}
	.st4{font-size:442.2704px;}
</style>
<g>
	<path class="st0" d="M100,511.5c-54.9,0-99.5-44.6-99.5-99.5V100C0.5,45.1,45.1,0.5,100,0.5h312c54.9,0,99.5,44.6,99.5,99.5v312
		c0,54.9-44.6,99.5-99.5,99.5H100z M400.5,154.5c-3.5,0-5.3,2.8-5.3,5.5s1.8,5.5,5.3,5.5s5.3-2.8,5.3-5.5
		C405.8,157.3,404,154.5,400.5,154.5z"/>
	<path class="st0" d="M412,1c26.3,0,51.2,10.3,69.9,29.1C500.7,48.8,511,73.7,511,100v312c0,26.3-10.3,51.2-29.1,69.9
		C463.2,500.7,438.3,511,412,511H100c-26.3,0-51.2-10.3-69.9-29.1C11.3,463.2,1,438.3,1,412V100c0-26.3,10.3-51.2,29.1-69.9
		C48.8,11.3,73.7,1,100,1H412 M400.5,166c3.8,0,5.8-3,5.8-6s-2-6-5.8-6s-5.8,3-5.8,6S396.7,166,400.5,166 M412,0H100
		C45,0,0,45,0,100v312c0,55,45,100,100,100h312c55,0,100-45,100-100V100C512,45,467,0,412,0L412,0z M400.5,165c-6.5,0-6.4-10,0-10
		C406.9,155,406.9,165,400.5,165L400.5,165z"/>
</g>
<line class="st1" x1="70.5" y1="244" x2="690.5" y2="414"/>
<rect x="413.5" y="131.7" class="st1" width="3.8" height="137.9"/>
<path class="st2" d="M441.5,511.5h-371c-38.5,0-70-31.5-70-70v-371c0-38.5,31.5-70,70-70h371c38.5,0,70,31.5,70,70v371
	C511.5,480,480,511.5,441.5,511.5z"/>
<text transform="matrix(1.1583 0 0 1 22 403.8936)" class="st3 st4">M</text>
</svg>
