<?xml version="1.0" encoding="utf-8"?>
<!-- Generator: Adobe Illustrator 23.0.5, SVG Export Plug-In . SVG Version: 6.00 Build 0)  -->
<svg version="1.1" id="Слой_1" xmlns="http://www.w3.org/2000/svg" xmlns:xlink="http://www.w3.org/1999/xlink" x="0px" y="0px"
	 width="24px" height="24px" viewBox="0 0 24 24" style="enable-background:new 0 0 24 24;" xml:space="preserve">
<style type="text/css">
	.st0{fill:#3300FF;}
</style>
<path class="st0" d="M23,12c0,1-0.2,2-0.4,3h-2.1c0.3-0.9,0.5-1.9,0.5-3c0-5-4-9-9-9c-1.7,0-3.3,0.5-4.7,1.3L9.2,7h-7l2.2-7l1.8,2.7
	C7.9,1.6,9.9,1,12,1C18.1,1,23,5.9,23,12z M16.6,19.7C15.3,20.5,13.7,21,12,21c-5,0-9-4-9-9c0-1.1,0.2-2.1,0.5-3H1.4
	C1.2,10,1,11,1,12c0,6.1,4.9,11,11,11c2.1,0,4.1-0.6,5.8-1.7l1.9,2.7l2.2-7h-7C14.8,17,16.6,19.7,16.6,19.7z M17,9.4L15.6,8
	l-5.1,5.2L8.4,11L7,12.4l3.5,3.6C10.5,16,17,9.4,17,9.4z"/>
</svg>
