<?xml version="1.0" encoding="utf-8"?>
<!-- Generator: Adobe Illustrator 23.0.5, SVG Export Plug-In . SVG Version: 6.00 Build 0)  -->
<svg version="1.1" id="Слой_1" xmlns="http://www.w3.org/2000/svg" xmlns:xlink="http://www.w3.org/1999/xlink" x="0px" y="0px"
	 width="24px" height="24px" viewBox="0 0 24 24" style="enable-background:new 0 0 24 24;" xml:space="preserve">
<style type="text/css">
	.st0{fill:#757575;}
</style>
<path class="st0" d="M17,3V1c0-0.6,0.4-1,1-1s1,0.4,1,1v2c0,0.6-0.4,1-1,1S17,3.6,17,3z M5,4c0.6,0,1-0.4,1-1V1c0-0.6-0.4-1-1-1
	S4,0.4,4,1v2C4,3.6,4.4,4,5,4z M18,17v-3h-1v4h3v-1H18z M13,17.5c0,2.5,2,4.5,4.5,4.5s4.5-2,4.5-4.5S20,13,17.5,13S13,15,13,17.5z
	 M24,17.5c0,3.6-2.9,6.5-6.5,6.5S11,21.1,11,17.5s2.9-6.5,6.5-6.5S24,13.9,24,17.5z M9.8,21H2V8h19v1.8c0.7,0.3,1.4,0.8,2,1.3V2h-3
	v1c0,1.3-1.3,2.3-2.7,1.9c-0.8-0.3-1.3-1.1-1.3-2V2H7v1c0,1.3-1.3,2.3-2.7,1.9C3.5,4.6,3,3.8,3,2.9V2H0v21h11
	C10.5,22.4,10.1,21.7,9.8,21z"/>
</svg>
