<?xml version="1.0" encoding="utf-8"?>
<!-- Generator: Adobe Illustrator 23.0.5, SVG Export Plug-In . SVG Version: 6.00 Build 0)  -->
<svg version="1.1" id="Слой_1" xmlns="http://www.w3.org/2000/svg" xmlns:xlink="http://www.w3.org/1999/xlink" x="0px" y="0px"
	 width="24px" height="24px" viewBox="0 0 24 24" style="enable-background:new 0 0 24 24;" xml:space="preserve">
<style type="text/css">
	.st0{fill:#757575;}
</style>
<path class="st0" d="M24,2v22H0V2h3v1c0,1.1,0.9,2,2,2s2-0.9,2-2V2h10v1c0,1.1,0.9,2,2,2s2-0.9,2-2V2H24z M22,8H2v14h20V8z M20,1
	c0-0.6-0.4-1-1-1s-1,0.4-1,1v2c0,0.6,0.4,1,1,1s1-0.4,1-1V1z M6,3c0,0.6-0.4,1-1,1S4,3.6,4,3V1c0-0.6,0.4-1,1-1s1,0.4,1,1V3z
	 M7,14.7l0.9-0.8c1,0.5,1.6,0.9,2.8,1.7c2.1-2.4,3.5-3.6,6.1-5.2L17,11c-2.1,1.9-3.7,3.9-6,8C9.6,17.4,8.7,16.3,7,14.7z"/>
</svg>
