<?xml version="1.0" encoding="utf-8"?>
<!-- Generator: Adobe Illustrator 23.0.5, SVG Export Plug-In . SVG Version: 6.00 Build 0)  -->
<svg version="1.1" id="Слой_1" xmlns="http://www.w3.org/2000/svg" xmlns:xlink="http://www.w3.org/1999/xlink" x="0px" y="0px"
	 width="16px" height="16px" viewBox="0 0 16 16" style="enable-background:new 0 0 16 16;" xml:space="preserve">
<style type="text/css">
	.st0{fill-rule:evenodd;clip-rule:evenodd;}
</style>
<path class="st0" d="M5,0c0.5,4.8-5,6.4-5,10.7C0,13.5,2.7,16,8,16c5.3,0,8-2.9,8-6c0-2.8-1.8-5.4-5.3-7c0.8,1.7-0.3,3.3-1.3,3.9
	C9.4,4.7,8.4,1.4,5,0z M9.2,8.7c3.3,2.7,1.3,6-1.4,6c-1.6,0-2.5-0.8-2.5-1.7C5.4,11.3,7.8,11.3,9.2,8.7z"/>
</svg>
