<?xml version="1.0" encoding="utf-8"?>
<!-- Generator: Adobe Illustrator 23.0.5, SVG Export Plug-In . SVG Version: 6.00 Build 0)  -->
<svg version="1.1" id="Слой_1" xmlns="http://www.w3.org/2000/svg" xmlns:xlink="http://www.w3.org/1999/xlink" x="0px" y="0px"
	 width="10px" height="16px" viewBox="0 0 10 16" style="enable-background:new 0 0 10 16;" xml:space="preserve">
<style type="text/css">
	.st0{fill:#993300;}
</style>
<path class="st0" d="M9.1,4.7C9.7,4,10,3,10,2.1V0H0v2.1C0,3,0.3,4,0.9,4.7l1.9,2.5c0.4,0.5,0.4,1.1,0,1.5l-2,2.5
	C0.3,12,0,13,0,13.9V16h10v-2.1c0-1-0.3-1.9-0.9-2.7l-2-2.5c-0.4-0.5-0.3-1.1,0-1.5C7.1,7.2,9.1,4.7,9.1,4.7z M6.2,9.6l2,2.5
	c0.4,0.5,0.6,1.2,0.6,1.9H8.1C7.6,12.7,5,10.7,5,10.7s-2.6,2-3.1,3.3H1.3c0-0.7,0.2-1.4,0.6-1.9l2-2.5c0.7-0.9,0.7-2.3,0-3.2
	L1.9,3.9C1.5,3.4,1.3,2.7,1.3,2h7.5c0,0.7-0.2,1.4-0.6,1.9L6.2,6.3C5.4,7.3,5.4,8.6,6.2,9.6z"/>
</svg>
